<svg xmlns="http://www.w3.org/2000/svg" viewBox="0 0 600 350" font-family="system-ui, sans-serif" font-size="12">
  <rect width="600" height="350" fill="white"/>
  <text x="300.0" y="20" text-anchor="middle" font-size="14" font-weight="bold">Transactional Pipeline: Throughput (txns/s)</text>
  <line x1="80" y1="270.0" x2="570" y2="270.0" stroke="#e5e7eb" stroke-width="1"/>
  <text x="72" y="274.0" text-anchor="end" font-size="11" fill="#6b7280">0</text>
  <line x1="80" y1="224.0" x2="570" y2="224.0" stroke="#e5e7eb" stroke-width="1"/>
  <text x="72" y="228.0" text-anchor="end" font-size="11" fill="#6b7280">129</text>
  <line x1="80" y1="178.0" x2="570" y2="178.0" stroke="#e5e7eb" stroke-width="1"/>
  <text x="72" y="182.0" text-anchor="end" font-size="11" fill="#6b7280">258</text>
  <line x1="80" y1="132.0" x2="570" y2="132.0" stroke="#e5e7eb" stroke-width="1"/>
  <text x="72" y="136.0" text-anchor="end" font-size="11" fill="#6b7280">388</text>
  <line x1="80" y1="86.00000000000003" x2="570" y2="86.00000000000003" stroke="#e5e7eb" stroke-width="1"/>
  <text x="72" y="90.00000000000003" text-anchor="end" font-size="11" fill="#6b7280">517</text>
  <line x1="80" y1="40.0" x2="570" y2="40.0" stroke="#e5e7eb" stroke-width="1"/>
  <text x="72" y="44.0" text-anchor="end" font-size="11" fill="#6b7280">646</text>
  <rect x="107.22222222222223" y="89.20433436532508" width="43.555555555555564" height="180.79566563467492" fill="#6b7280" rx="2"/>
  <text x="129.0" y="84.20433436532508" text-anchor="middle" font-size="10" fill="#374151">508</text>
  <rect x="161.66666666666669" y="156.530959752322" width="43.555555555555564" height="113.46904024767801" fill="#10b981" rx="2"/>
  <text x="183.44444444444446" y="151.530959752322" text-anchor="middle" font-size="10" fill="#374151">319</text>
  <text x="161.66666666666669" y="290" text-anchor="middle" font-size="11">10 txns</text>
  <text x="161.66666666666669" y="306" text-anchor="middle" font-size="10" fill="#059669" font-weight="bold">0.6x</text>
  <rect x="270.55555555555554" y="40.0" width="43.555555555555564" height="230.0" fill="#6b7280" rx="2"/>
  <text x="292.3333333333333" y="35.0" text-anchor="middle" font-size="10" fill="#374151">646</text>
  <rect x="325.0" y="127.08668730650155" width="43.555555555555564" height="142.91331269349845" fill="#10b981" rx="2"/>
  <text x="346.77777777777777" y="122.08668730650155" text-anchor="middle" font-size="10" fill="#374151">401</text>
  <text x="325.0" y="290" text-anchor="middle" font-size="11">100 txns</text>
  <text x="325.0" y="306" text-anchor="middle" font-size="10" fill="#059669" font-weight="bold">0.6x</text>
  <rect x="433.8888888888889" y="47.797213622291025" width="43.555555555555564" height="222.20278637770897" fill="#6b7280" rx="2"/>
  <text x="455.6666666666667" y="42.797213622291025" text-anchor="middle" font-size="10" fill="#374151">624</text>
  <rect x="488.33333333333337" y="138.72910216718267" width="43.555555555555564" height="131.27089783281733" fill="#10b981" rx="2"/>
  <text x="510.11111111111114" y="133.72910216718267" text-anchor="middle" font-size="10" fill="#374151">369</text>
  <text x="488.33333333333337" y="290" text-anchor="middle" font-size="11">1,000 txns</text>
  <text x="488.33333333333337" y="306" text-anchor="middle" font-size="10" fill="#059669" font-weight="bold">0.6x</text>
  <rect x="90" y="325" width="12" height="12" fill="#6b7280" rx="2"/>
  <text x="106" y="335" font-size="11" fill="#374151">Native (pymongo with_transaction)</text>
  <rect x="370" y="325" width="12" height="12" fill="#10b981" rx="2"/>
  <text x="386" y="335" font-size="11" fill="#374151">MongoCore (transaction_pipeline)</text>
</svg>